<?xml version="1.0" standalone="no"?>
<!DOCTYPE svg PUBLIC "-//W3C//DTD SVG 20010904//EN"
 "http://www.w3.org/TR/2001/REC-SVG-20010904/DTD/svg10.dtd">
<svg version="1.0" xmlns="http://www.w3.org/2000/svg"
 width="401.000000pt" height="257.000000pt" viewBox="0 0 401.000000 257.000000"
 preserveAspectRatio="xMidYMid meet">
<metadata>
Created by potrace 1.16, written by Peter Selinger 2001-2019
</metadata>
<g transform="translate(0.000000,257.000000) scale(0.100000,-0.100000)"
fill="#000000" stroke="none">
<path d="M1927 2545 c-222 -42 -431 -151 -587 -306 -94 -93 -156 -179 -217
-301 -59 -117 -63 -174 -17 -258 215 -400 1522 -906 1936 -750 103 38 138 96
179 293 27 132 23 368 -9 487 -111 419 -411 718 -823 821 -112 28 -350 35
-462 14z"/>
<path d="M780 2293 c-496 -36 -770 -224 -770 -526 0 -205 114 -418 350 -657
522 -528 1447 -957 2345 -1087 173 -25 594 -25 720 0 263 53 428 139 515 269
51 76 70 142 70 238 0 195 -106 401 -324 628 -61 62 -151 148 -200 190 l-91
76 -11 -95 c-20 -169 -59 -309 -109 -394 -128 -219 -536 -236 -1120 -48 -286
92 -605 242 -822 385 -261 173 -393 339 -401 503 -4 62 0 82 27 149 38 95 94
192 166 288 l55 73 -72 6 c-77 7 -252 8 -328 2z m-398 -413 c98 -28 103 -142
8 -190 -132 -67 -266 52 -167 148 49 48 95 59 159 42z m1458 -1212 c87 -44
116 -133 62 -188 -54 -54 -148 -49 -217 11 -47 42 -61 88 -40 133 31 65 116
84 195 44z m1857 -85 c37 -17 77 -70 88 -115 11 -42 -12 -96 -47 -114 -79 -41
-188 46 -188 151 0 27 8 44 29 66 34 33 66 37 118 12z"/>
</g>
</svg>
